<mxfile host="app.diagrams.net" modified="2024-05-10T15:15:16.141Z" agent="5.0 (Macintosh; Intel Mac OS X 10_15_7) AppleWebKit/537.36 (KHTML, like Gecko) Chrome/124.0.0.0 Safari/537.36" etag="ufx2uMQl-ON_qHwWcb7V" version="20.4.0" type="github">
  <diagram name="Page-1" id="jL8QJJ9i0J1CRAjg_JqJ">
    <mxGraphModel dx="1224" dy="1364" grid="1" gridSize="10" guides="1" tooltips="1" connect="1" arrows="1" fold="1" page="1" pageScale="1" pageWidth="1169" pageHeight="827" math="0" shadow="0">
      <root>
        <mxCell id="0" />
        <mxCell id="1" parent="0" />
        <mxCell id="HlB0gFYjYxwYRRCom7n0-4" value="Logs" style="endArrow=classic;html=1;rounded=0;exitX=0.5;exitY=1;exitDx=0;exitDy=0;edgeStyle=orthogonalEdgeStyle;entryX=0;entryY=0.5;entryDx=0;entryDy=0;" edge="1" parent="1" target="HlB0gFYjYxwYRRCom7n0-1">
          <mxGeometry x="0.3114" width="50" height="50" relative="1" as="geometry">
            <mxPoint x="70" y="82" as="sourcePoint" />
            <mxPoint x="300" y="492" as="targetPoint" />
            <Array as="points">
              <mxPoint x="70" y="490" />
            </Array>
            <mxPoint as="offset" />
          </mxGeometry>
        </mxCell>
        <mxCell id="fxDSYSPeCNJEnBiwhpot-46" style="edgeStyle=none;rounded=0;orthogonalLoop=1;jettySize=auto;html=1;exitX=0;exitY=0.25;exitDx=0;exitDy=0;entryX=1;entryY=0.5;entryDx=0;entryDy=0;" parent="1" source="fxDSYSPeCNJEnBiwhpot-36" target="fxDSYSPeCNJEnBiwhpot-21" edge="1">
          <mxGeometry relative="1" as="geometry" />
        </mxCell>
        <mxCell id="fxDSYSPeCNJEnBiwhpot-47" style="edgeStyle=none;rounded=0;orthogonalLoop=1;jettySize=auto;html=1;exitX=0;exitY=0.5;exitDx=0;exitDy=0;entryX=1;entryY=0.5;entryDx=0;entryDy=0;" parent="1" source="fxDSYSPeCNJEnBiwhpot-36" target="fxDSYSPeCNJEnBiwhpot-22" edge="1">
          <mxGeometry relative="1" as="geometry" />
        </mxCell>
        <mxCell id="fxDSYSPeCNJEnBiwhpot-48" style="edgeStyle=none;rounded=0;orthogonalLoop=1;jettySize=auto;html=1;exitX=0;exitY=0.75;exitDx=0;exitDy=0;entryX=1;entryY=0.5;entryDx=0;entryDy=0;" parent="1" source="fxDSYSPeCNJEnBiwhpot-36" target="fxDSYSPeCNJEnBiwhpot-23" edge="1">
          <mxGeometry relative="1" as="geometry" />
        </mxCell>
        <mxCell id="fxDSYSPeCNJEnBiwhpot-36" value="" style="rounded=0;whiteSpace=wrap;html=1;fillColor=#D5E8D4;strokeColor=#97D077;" parent="1" vertex="1">
          <mxGeometry x="980" y="150" width="180" height="120" as="geometry" />
        </mxCell>
        <mxCell id="fxDSYSPeCNJEnBiwhpot-1" style="rounded=0;orthogonalLoop=1;jettySize=auto;html=1;exitX=1;exitY=0.5;exitDx=0;exitDy=0;startArrow=none;startFill=0;endArrow=classic;endFill=1;entryX=0;entryY=0.25;entryDx=0;entryDy=0;" parent="1" source="fxDSYSPeCNJEnBiwhpot-4" target="fxDSYSPeCNJEnBiwhpot-39" edge="1">
          <mxGeometry relative="1" as="geometry">
            <mxPoint x="400" y="220" as="targetPoint" />
          </mxGeometry>
        </mxCell>
        <mxCell id="fxDSYSPeCNJEnBiwhpot-2" style="rounded=0;orthogonalLoop=1;jettySize=auto;html=1;exitX=1;exitY=0.5;exitDx=0;exitDy=0;entryX=0;entryY=0.5;entryDx=0;entryDy=0;" parent="1" source="fxDSYSPeCNJEnBiwhpot-4" target="fxDSYSPeCNJEnBiwhpot-39" edge="1">
          <mxGeometry relative="1" as="geometry">
            <mxPoint x="420" y="410" as="targetPoint" />
          </mxGeometry>
        </mxCell>
        <mxCell id="fxDSYSPeCNJEnBiwhpot-4" value="&lt;div&gt;Java Service 0&lt;br&gt;&lt;/div&gt;" style="rounded=1;whiteSpace=wrap;html=1;" parent="1" vertex="1">
          <mxGeometry x="10" y="20" width="120" height="60" as="geometry" />
        </mxCell>
        <mxCell id="fxDSYSPeCNJEnBiwhpot-5" style="edgeStyle=none;shape=connector;rounded=0;orthogonalLoop=1;jettySize=auto;html=1;exitX=1;exitY=0.5;exitDx=0;exitDy=0;labelBackgroundColor=default;strokeColor=default;align=center;verticalAlign=middle;fontFamily=Helvetica;fontSize=11;fontColor=default;endArrow=classic;entryX=0;entryY=0.25;entryDx=0;entryDy=0;" parent="1" source="fxDSYSPeCNJEnBiwhpot-8" target="fxDSYSPeCNJEnBiwhpot-39" edge="1">
          <mxGeometry relative="1" as="geometry">
            <mxPoint x="400" y="250" as="targetPoint" />
          </mxGeometry>
        </mxCell>
        <mxCell id="fxDSYSPeCNJEnBiwhpot-6" style="edgeStyle=none;shape=connector;rounded=0;orthogonalLoop=1;jettySize=auto;html=1;exitX=1;exitY=0.5;exitDx=0;exitDy=0;labelBackgroundColor=default;strokeColor=default;align=center;verticalAlign=middle;fontFamily=Helvetica;fontSize=11;fontColor=default;endArrow=classic;entryX=0;entryY=0.5;entryDx=0;entryDy=0;" parent="1" source="fxDSYSPeCNJEnBiwhpot-8" target="fxDSYSPeCNJEnBiwhpot-39" edge="1">
          <mxGeometry relative="1" as="geometry">
            <mxPoint x="420" y="410" as="targetPoint" />
          </mxGeometry>
        </mxCell>
        <mxCell id="fxDSYSPeCNJEnBiwhpot-8" value="Java Service 1" style="rounded=1;whiteSpace=wrap;html=1;" parent="1" vertex="1">
          <mxGeometry x="10" y="100" width="120" height="60" as="geometry" />
        </mxCell>
        <mxCell id="fxDSYSPeCNJEnBiwhpot-9" style="edgeStyle=none;shape=connector;rounded=0;orthogonalLoop=1;jettySize=auto;html=1;exitX=1;exitY=0.5;exitDx=0;exitDy=0;labelBackgroundColor=default;strokeColor=default;align=center;verticalAlign=middle;fontFamily=Helvetica;fontSize=11;fontColor=default;endArrow=classic;entryX=0;entryY=0.25;entryDx=0;entryDy=0;" parent="1" source="fxDSYSPeCNJEnBiwhpot-12" target="fxDSYSPeCNJEnBiwhpot-39" edge="1">
          <mxGeometry relative="1" as="geometry">
            <mxPoint x="400" y="280" as="targetPoint" />
          </mxGeometry>
        </mxCell>
        <mxCell id="fxDSYSPeCNJEnBiwhpot-10" style="edgeStyle=none;shape=connector;rounded=0;orthogonalLoop=1;jettySize=auto;html=1;exitX=1;exitY=0.5;exitDx=0;exitDy=0;labelBackgroundColor=default;strokeColor=default;align=center;verticalAlign=middle;fontFamily=Helvetica;fontSize=11;fontColor=default;endArrow=classic;entryX=0;entryY=0.5;entryDx=0;entryDy=0;" parent="1" source="fxDSYSPeCNJEnBiwhpot-12" target="fxDSYSPeCNJEnBiwhpot-39" edge="1">
          <mxGeometry relative="1" as="geometry">
            <mxPoint x="420" y="410" as="targetPoint" />
          </mxGeometry>
        </mxCell>
        <mxCell id="fxDSYSPeCNJEnBiwhpot-12" value="&lt;div&gt;Java Service 2&lt;/div&gt;" style="rounded=1;whiteSpace=wrap;html=1;" parent="1" vertex="1">
          <mxGeometry x="10" y="180" width="120" height="60" as="geometry" />
        </mxCell>
        <mxCell id="fxDSYSPeCNJEnBiwhpot-13" style="edgeStyle=none;shape=connector;rounded=0;orthogonalLoop=1;jettySize=auto;html=1;exitX=1;exitY=0.5;exitDx=0;exitDy=0;entryX=0;entryY=0.25;entryDx=0;entryDy=0;labelBackgroundColor=default;strokeColor=default;align=center;verticalAlign=middle;fontFamily=Helvetica;fontSize=11;fontColor=default;endArrow=classic;" parent="1" source="fxDSYSPeCNJEnBiwhpot-16" target="fxDSYSPeCNJEnBiwhpot-39" edge="1">
          <mxGeometry relative="1" as="geometry" />
        </mxCell>
        <mxCell id="fxDSYSPeCNJEnBiwhpot-14" style="edgeStyle=none;shape=connector;rounded=0;orthogonalLoop=1;jettySize=auto;html=1;exitX=1;exitY=0.5;exitDx=0;exitDy=0;labelBackgroundColor=default;strokeColor=default;align=center;verticalAlign=middle;fontFamily=Helvetica;fontSize=11;fontColor=default;endArrow=classic;entryX=0;entryY=0.5;entryDx=0;entryDy=0;" parent="1" source="fxDSYSPeCNJEnBiwhpot-16" target="fxDSYSPeCNJEnBiwhpot-39" edge="1">
          <mxGeometry relative="1" as="geometry">
            <mxPoint x="420" y="410" as="targetPoint" />
          </mxGeometry>
        </mxCell>
        <mxCell id="fxDSYSPeCNJEnBiwhpot-16" value="..." style="rounded=1;whiteSpace=wrap;html=1;" parent="1" vertex="1">
          <mxGeometry x="10" y="260" width="120" height="60" as="geometry" />
        </mxCell>
        <mxCell id="fxDSYSPeCNJEnBiwhpot-17" style="edgeStyle=none;shape=connector;rounded=0;orthogonalLoop=1;jettySize=auto;html=1;exitX=1;exitY=0.5;exitDx=0;exitDy=0;labelBackgroundColor=default;strokeColor=default;align=center;verticalAlign=middle;fontFamily=Helvetica;fontSize=11;fontColor=default;endArrow=classic;entryX=0;entryY=0.25;entryDx=0;entryDy=0;" parent="1" source="fxDSYSPeCNJEnBiwhpot-20" target="fxDSYSPeCNJEnBiwhpot-39" edge="1">
          <mxGeometry relative="1" as="geometry">
            <mxPoint x="420" y="370" as="targetPoint" />
          </mxGeometry>
        </mxCell>
        <mxCell id="fxDSYSPeCNJEnBiwhpot-18" style="edgeStyle=none;shape=connector;rounded=0;orthogonalLoop=1;jettySize=auto;html=1;exitX=1;exitY=0.5;exitDx=0;exitDy=0;entryX=0;entryY=0.5;entryDx=0;entryDy=0;labelBackgroundColor=default;strokeColor=default;align=center;verticalAlign=middle;fontFamily=Helvetica;fontSize=11;fontColor=default;endArrow=classic;" parent="1" source="fxDSYSPeCNJEnBiwhpot-20" target="fxDSYSPeCNJEnBiwhpot-39" edge="1">
          <mxGeometry relative="1" as="geometry" />
        </mxCell>
        <mxCell id="fxDSYSPeCNJEnBiwhpot-20" value="&lt;div&gt;Java Service n&lt;br&gt;&lt;/div&gt;" style="rounded=1;whiteSpace=wrap;html=1;" parent="1" vertex="1">
          <mxGeometry x="10" y="340" width="120" height="60" as="geometry" />
        </mxCell>
        <mxCell id="fxDSYSPeCNJEnBiwhpot-21" value="" style="rounded=0;whiteSpace=wrap;html=1;fillColor=#dae8fc;strokeColor=#6c8ebf;" parent="1" vertex="1">
          <mxGeometry x="700" y="10" width="180" height="120" as="geometry" />
        </mxCell>
        <mxCell id="fxDSYSPeCNJEnBiwhpot-22" value="" style="rounded=0;whiteSpace=wrap;html=1;fillColor=#ffe6cc;strokeColor=#d79b00;" parent="1" vertex="1">
          <mxGeometry x="700" y="150" width="180" height="120" as="geometry" />
        </mxCell>
        <mxCell id="fxDSYSPeCNJEnBiwhpot-23" value="" style="rounded=0;whiteSpace=wrap;html=1;fillColor=#f8cecc;strokeColor=#b85450;" parent="1" vertex="1">
          <mxGeometry x="700" y="290" width="180" height="120" as="geometry" />
        </mxCell>
        <mxCell id="fxDSYSPeCNJEnBiwhpot-27" value="InfluxDB v2" style="rounded=1;whiteSpace=wrap;html=1;fontFamily=Helvetica;fontSize=11;fontColor=default;fillColor=none;" parent="1" vertex="1">
          <mxGeometry x="730" y="50" width="120" height="60" as="geometry" />
        </mxCell>
        <mxCell id="fxDSYSPeCNJEnBiwhpot-29" value="Grafana Tempo" style="rounded=1;whiteSpace=wrap;html=1;fontFamily=Helvetica;fontSize=11;fontColor=default;fillColor=none;" parent="1" vertex="1">
          <mxGeometry x="730" y="190" width="120" height="60" as="geometry" />
        </mxCell>
        <mxCell id="fxDSYSPeCNJEnBiwhpot-31" value="Grafana Loki" style="rounded=1;whiteSpace=wrap;html=1;fontFamily=Helvetica;fontSize=11;fontColor=default;fillColor=none;" parent="1" vertex="1">
          <mxGeometry x="730" y="330" width="120" height="60" as="geometry" />
        </mxCell>
        <mxCell id="fxDSYSPeCNJEnBiwhpot-32" value="Grafana" style="rounded=1;whiteSpace=wrap;html=1;fontFamily=Helvetica;fontSize=11;fontColor=default;fillColor=none;" parent="1" vertex="1">
          <mxGeometry x="1010" y="190" width="120" height="60" as="geometry" />
        </mxCell>
        <mxCell id="fxDSYSPeCNJEnBiwhpot-33" value="Logs" style="text;html=1;strokeColor=none;fillColor=none;align=center;verticalAlign=middle;whiteSpace=wrap;rounded=0;" parent="1" vertex="1">
          <mxGeometry x="760" y="300" width="60" height="30" as="geometry" />
        </mxCell>
        <mxCell id="fxDSYSPeCNJEnBiwhpot-34" value="Traces" style="text;html=1;strokeColor=none;fillColor=none;align=center;verticalAlign=middle;whiteSpace=wrap;rounded=0;" parent="1" vertex="1">
          <mxGeometry x="760" y="160" width="60" height="30" as="geometry" />
        </mxCell>
        <mxCell id="fxDSYSPeCNJEnBiwhpot-35" value="Metrics" style="text;html=1;strokeColor=none;fillColor=none;align=center;verticalAlign=middle;whiteSpace=wrap;rounded=0;" parent="1" vertex="1">
          <mxGeometry x="760" y="20" width="60" height="30" as="geometry" />
        </mxCell>
        <mxCell id="fxDSYSPeCNJEnBiwhpot-37" value="Visualization" style="text;html=1;strokeColor=none;fillColor=none;align=center;verticalAlign=middle;whiteSpace=wrap;rounded=0;" parent="1" vertex="1">
          <mxGeometry x="1040" y="160" width="60" height="30" as="geometry" />
        </mxCell>
        <mxCell id="fxDSYSPeCNJEnBiwhpot-42" value="" style="group;fillColor=#E6D0DE;" parent="1" vertex="1" connectable="0">
          <mxGeometry x="420" y="150" width="180" height="120" as="geometry" />
        </mxCell>
        <mxCell id="fxDSYSPeCNJEnBiwhpot-39" value="" style="rounded=0;whiteSpace=wrap;html=1;fillColor=#E6D0DE;strokeColor=#B5739D;" parent="fxDSYSPeCNJEnBiwhpot-42" vertex="1">
          <mxGeometry width="180" height="120" as="geometry" />
        </mxCell>
        <mxCell id="fxDSYSPeCNJEnBiwhpot-40" value="OpenTelemetry&lt;br&gt;Collector" style="rounded=1;whiteSpace=wrap;html=1;fontFamily=Helvetica;fontSize=11;fontColor=default;fillColor=none;" parent="fxDSYSPeCNJEnBiwhpot-42" vertex="1">
          <mxGeometry x="30" y="40" width="120" height="60" as="geometry" />
        </mxCell>
        <mxCell id="fxDSYSPeCNJEnBiwhpot-41" value="Communication" style="text;html=1;strokeColor=none;fillColor=none;align=center;verticalAlign=middle;whiteSpace=wrap;rounded=0;" parent="fxDSYSPeCNJEnBiwhpot-42" vertex="1">
          <mxGeometry x="60" y="10" width="60" height="30" as="geometry" />
        </mxCell>
        <mxCell id="fxDSYSPeCNJEnBiwhpot-43" style="rounded=0;orthogonalLoop=1;jettySize=auto;html=1;exitX=1;exitY=0.25;exitDx=0;exitDy=0;entryX=0;entryY=0.5;entryDx=0;entryDy=0;" parent="1" source="fxDSYSPeCNJEnBiwhpot-39" target="fxDSYSPeCNJEnBiwhpot-21" edge="1">
          <mxGeometry relative="1" as="geometry" />
        </mxCell>
        <mxCell id="fxDSYSPeCNJEnBiwhpot-44" style="rounded=0;orthogonalLoop=1;jettySize=auto;html=1;exitX=1;exitY=0.5;exitDx=0;exitDy=0;entryX=0;entryY=0.5;entryDx=0;entryDy=0;" parent="1" source="fxDSYSPeCNJEnBiwhpot-39" target="fxDSYSPeCNJEnBiwhpot-22" edge="1">
          <mxGeometry relative="1" as="geometry" />
        </mxCell>
        <mxCell id="fxDSYSPeCNJEnBiwhpot-45" style="rounded=0;orthogonalLoop=1;jettySize=auto;html=1;exitX=1;exitY=0.75;exitDx=0;exitDy=0;entryX=0;entryY=0.5;entryDx=0;entryDy=0;" parent="1" source="fxDSYSPeCNJEnBiwhpot-39" target="fxDSYSPeCNJEnBiwhpot-23" edge="1">
          <mxGeometry relative="1" as="geometry" />
        </mxCell>
        <mxCell id="HlB0gFYjYxwYRRCom7n0-1" value="" style="shape=image;html=1;verticalAlign=top;verticalLabelPosition=bottom;labelBackgroundColor=#ffffff;imageAspect=0;aspect=fixed;image=https://cdn1.iconfinder.com/data/icons/social-media-2106/24/social_media_social_media_logo_docker-128.png;strokeColor=#FF66FF;fillColor=#FFCCFF;" vertex="1" parent="1">
          <mxGeometry x="269" y="460" width="60" height="60" as="geometry" />
        </mxCell>
        <mxCell id="HlB0gFYjYxwYRRCom7n0-2" value="" style="sketch=0;pointerEvents=1;shadow=0;dashed=0;html=1;strokeColor=none;fillColor=#505050;labelPosition=center;verticalLabelPosition=bottom;verticalAlign=top;outlineConnect=0;align=center;shape=mxgraph.office.servers.mainframe_host;" vertex="1" parent="1">
          <mxGeometry x="480" y="460" width="60" height="60" as="geometry" />
        </mxCell>
        <mxCell id="HlB0gFYjYxwYRRCom7n0-3" value="Host Stats" style="edgeStyle=none;rounded=0;orthogonalLoop=1;jettySize=auto;html=1;exitX=0.5;exitY=1;exitDx=0;exitDy=0;" edge="1" parent="1" source="fxDSYSPeCNJEnBiwhpot-39" target="HlB0gFYjYxwYRRCom7n0-2">
          <mxGeometry relative="1" as="geometry" />
        </mxCell>
        <mxCell id="HlB0gFYjYxwYRRCom7n0-6" style="rounded=0;orthogonalLoop=1;jettySize=auto;html=1;exitX=0.5;exitY=1;exitDx=0;exitDy=0;entryX=0.5;entryY=0;entryDx=0;entryDy=0;" edge="1" parent="1" source="HlB0gFYjYxwYRRCom7n0-5" target="HlB0gFYjYxwYRRCom7n0-1">
          <mxGeometry relative="1" as="geometry" />
        </mxCell>
        <mxCell id="HlB0gFYjYxwYRRCom7n0-7" style="edgeStyle=none;rounded=0;orthogonalLoop=1;jettySize=auto;html=1;exitX=0.5;exitY=0;exitDx=0;exitDy=0;entryX=0;entryY=0.75;entryDx=0;entryDy=0;" edge="1" parent="1" source="HlB0gFYjYxwYRRCom7n0-5" target="fxDSYSPeCNJEnBiwhpot-39">
          <mxGeometry relative="1" as="geometry" />
        </mxCell>
        <mxCell id="HlB0gFYjYxwYRRCom7n0-5" value="Promtail" style="rounded=1;whiteSpace=wrap;html=1;" vertex="1" parent="1">
          <mxGeometry x="239" y="350" width="120" height="60" as="geometry" />
        </mxCell>
        <mxCell id="HlB0gFYjYxwYRRCom7n0-8" value="Docker Stats" style="edgeStyle=none;rounded=0;orthogonalLoop=1;jettySize=auto;html=1;exitX=0.25;exitY=1;exitDx=0;exitDy=0;entryX=1;entryY=0.5;entryDx=0;entryDy=0;" edge="1" parent="1" source="fxDSYSPeCNJEnBiwhpot-39" target="HlB0gFYjYxwYRRCom7n0-1">
          <mxGeometry x="-0.4674" y="3" relative="1" as="geometry">
            <mxPoint as="offset" />
          </mxGeometry>
        </mxCell>
        <mxCell id="HlB0gFYjYxwYRRCom7n0-9" value="" style="rounded=1;whiteSpace=wrap;html=1;strokeColor=#B5739D;fillColor=#E6D0DE;" vertex="1" parent="1">
          <mxGeometry x="110" y="20" width="20" height="60" as="geometry" />
        </mxCell>
        <mxCell id="HlB0gFYjYxwYRRCom7n0-10" value="" style="rounded=1;whiteSpace=wrap;html=1;strokeColor=#B5739D;fillColor=#E6D0DE;" vertex="1" parent="1">
          <mxGeometry x="110" y="180" width="20" height="60" as="geometry" />
        </mxCell>
        <mxCell id="HlB0gFYjYxwYRRCom7n0-11" value="" style="rounded=1;whiteSpace=wrap;html=1;strokeColor=#B5739D;fillColor=#E6D0DE;" vertex="1" parent="1">
          <mxGeometry x="110" y="100" width="20" height="60" as="geometry" />
        </mxCell>
        <mxCell id="HlB0gFYjYxwYRRCom7n0-12" value="" style="rounded=1;whiteSpace=wrap;html=1;strokeColor=#B5739D;fillColor=#E6D0DE;" vertex="1" parent="1">
          <mxGeometry x="110" y="260" width="20" height="60" as="geometry" />
        </mxCell>
        <mxCell id="HlB0gFYjYxwYRRCom7n0-13" value="" style="rounded=1;whiteSpace=wrap;html=1;strokeColor=#B5739D;fillColor=#E6D0DE;" vertex="1" parent="1">
          <mxGeometry x="110" y="340" width="20" height="60" as="geometry" />
        </mxCell>
      </root>
    </mxGraphModel>
  </diagram>
</mxfile>
